PathFileType	4	(X/Y/Z)	C:\Users\Basilio\Documents\Thesis Gigler\squatting_fais\c3dfiles\054\SJ_pre2\markers_experimental.trc
DataRate	CameraRate	NumFrames	NumMarkers	Units	OrigDataRate	OrigDataStartFrame	OrigNumFrames
200.000000	200.000000	4	61	mm	200.000000	261	2095
Frame#	Time	FHD			LBHD			RBHD			C7			T10			CLAV			LSHO			LUUPA			LMUPA			LDUPA			LLEP			LMEP			LRAD			LUL			LRFIN			RSHO			RUPA1			RMUPA			RDUPA			RLEP			RMEP			RRAD			RUL			RUFIN			LASI			RASI			USACR			LSACR			RSACR			LTHI1			LTHI2			LTHI3			LTHI4			LLFC			LMFC			LTIB1			LTIB2			LTIB3			LTIB4			LLMAL			LMMAL			LHEE			LMT1			LMT2			LMT5			RTHI			RTHI2			RTHI3			RTHI4			RLFC			RMFC			RTIB1			RTIB2			RTIB3			RTIB4			RLMAL			RMMAL			RHEE			RMT1			RMT2			RMT5			
		X1	Y1	Z1	X2	Y2	Z2	X3	Y3	Z3	X4	Y4	Z4	X5	Y5	Z5	X6	Y6	Z6	X7	Y7	Z7	X8	Y8	Z8	X9	Y9	Z9	X10	Y10	Z10	X11	Y11	Z11	X12	Y12	Z12	X13	Y13	Z13	X14	Y14	Z14	X15	Y15	Z15	X16	Y16	Z16	X17	Y17	Z17	X18	Y18	Z18	X19	Y19	Z19	X20	Y20	Z20	X21	Y21	Z21	X22	Y22	Z22	X23	Y23	Z23	X24	Y24	Z24	X25	Y25	Z25	X26	Y26	Z26	X27	Y27	Z27	X28	Y28	Z28	X29	Y29	Z29	X30	Y30	Z30	X31	Y31	Z31	X32	Y32	Z32	X33	Y33	Z33	X34	Y34	Z34	X35	Y35	Z35	X36	Y36	Z36	X37	Y37	Z37	X38	Y38	Z38	X39	Y39	Z39	X40	Y40	Z40	X41	Y41	Z41	X42	Y42	Z42	X43	Y43	Z43	X44	Y44	Z44	X45	Y45	Z45	X46	Y46	Z46	X47	Y47	Z47	X48	Y48	Z48	X49	Y49	Z49	X50	Y50	Z50	X51	Y51	Z51	X52	Y52	Z52	X53	Y53	Z53	X54	Y54	Z54	X55	Y55	Z55	X56	Y56	Z56	X57	Y57	Z57	X58	Y58	Z58	X59	Y59	Z59	X60	Y60	Z60	X61	Y61	Z61	

262	1.305	-77.05324554443361	1621.287719726563	-774.8140258789065	-232.3037719726563	1691.9697265625	-848.2315673828127	-251.5420074462891	1691.8271484375	-708.7368164062501	-375.0332336425782	1540.673828125	-780.4946899414065	-454.6815490722657	1204.71142578125	-828.4738769531252	-248.2964630126954	1451.026489257813	-796.4419555664065	-302.4004211425782	1544.672485351563	-944.0103149414065	-404.5201721191407	1442.585205078125	-1133.310791015625	-371.5419311523438	1402.631225585938	-1141.89501953125	-418.6329956054689	1393.105102539063	-1180.526000976563	-419.861785888672	1331.272338867188	-1207.49755859375	-495.8585510253907	1317.714111328125	-1162.20654296875	-413.6232299804689	1102.896240234375	-1072.648193359375	-372.6588439941407	1069.759521484375	-1128.103393554688	-356.8860473632813	1102.477172851563	-1035.381958007813	-287.3687744140626	1501.174926757813	-626.1779174804689	-391.9060363769532	1350.618896484375	-465.2530822753907	-369.1189575195313	1307.273681640625	-467.7775878906251	-419.1071777343751	1292.365600585938	-436.211151123047	-431.0898437500001	1242.635131835938	-427.3627319335939	-498.4811401367189	1246.117431640625	-481.6854553222657	-415.7376708984376	1049.267456054688	-624.1614379882814	-351.7396850585938	1067.474487304688	-643.8106689453126	-371.6945800781251	1013.240539550781	-567.1848144531251	-274.9614257812501	1024.567749023438	-968.7442016601565	-260.9770507812501	1013.988098144531	-714.4689331054689	-456.915985107422	1109.712158203125	-830.5590820312502	-463.7464904785157	1079.56396484375	-859.8574829101565	-459.4137268066407	1075.727783203125	-803.7522583007815	-373.9348144531251	818.3256835937502	-1091.597412109375	-338.2354125976563	743.8035278320314	-1114.221923828125	-291.0891418457032	749.7103881835939	-1111.577392578125	-363.3405151367188	687.7281494140626	-1109.56494140625	-351.6291198730469	535.4967041015626	-1130.037841796875	-295.9819946289063	497.8462829589845	-1011.837951660156	-315.0942077636719	365.4594116210938	-1134.026611328125	-381.6217346191407	338.0840759277344	-1188.144165039063	-337.9520263671876	327.8063354492188	-1174.497192382813	-342.5528259277344	244.5427551269532	-1159.480102539063	-419.5317382812501	121.3989868164063	-1220.887939453125	-368.6078186035157	120.2155685424805	-1137.425537109375	-477.5848999023439	85.39088439941408	-1156.446533203125	-261.3400878906251	56.97241210937501	-1189.461669921875	-264.3126220703126	67.30489349365236	-1238.257080078125	-325.2715148925782	55.60044097900392	-1279.39404296875	-366.3453674316407	728.7636108398439	-630.6146850585939	-330.7171325683594	673.1110839843751	-628.9640502929689	-297.5628662109376	673.4186401367189	-632.4572753906251	-360.5003051757813	596.0079956054689	-646.3395996093751	-372.9683227539063	501.995086669922	-647.9302978515626	-309.5609741210938	498.668426513672	-768.7348632812502	-330.5985107421876	389.7429504394532	-640.9507446289064	-411.7461242675782	324.8663635253907	-615.6432495117189	-366.3047485351563	313.4248657226563	-618.7557373046876	-352.4682312011719	260.7461242675782	-638.9830932617189	-429.1594848632814	88.93042755126955	-620.9885864257814	-373.6870727539063	101.032096862793	-698.5255126953126	-474.6682434082032	47.39931106567384	-691.3901977539064	-251.9531402587891	52.8292922973633	-644.2410278320314	-264.2433471679688	55.32769775390626	-598.2899780273439	-321.7687377929688	33.92959594726563	-561.3157958984376	
263	1.31	-77.38144683837892	1621.377807617188	-776.3957519531252	-232.3827209472657	1691.765014648438	-850.0850830078127	-251.7702178955079	1691.825805664063	-710.6878051757814	-375.0448303222657	1540.5234375	-782.3108520507815	-454.3909301757814	1204.436645507813	-829.8414306640627	-247.4367218017579	1450.916625976563	-798.1226806640627	-301.8413085937501	1544.216796875	-946.0322875976565	-404.0267333984376	1441.88427734375	-1135.002197265625	-370.7684326171876	1401.870727539063	-1143.497192382813	-417.9591369628907	1391.97265625	-1181.923095703125	-419.2080688476564	1330.32666015625	-1208.98828125	-495.1399841308595	1316.702270507813	-1163.818481445313	-412.8804321289064	1102.223999023438	-1073.558837890625	-371.9291992187501	1069.020141601563	-1129.21875	-356.3503112792969	1101.8544921875	-1036.521240234375	-287.6063232421876	1501.242797851563	-627.7869262695314	-392.0860595703126	1350.980590820313	-466.8195800781251	-369.2579956054688	1307.673706054688	-469.2032470703126	-419.346405029297	1292.68896484375	-437.6013793945314	-431.1234130859376	1243.075073242188	-428.8438110351564	-498.6041870117189	1246.417724609375	-483.1044921875001	-415.7526855468751	1049.378173828125	-625.1557006835939	-351.7730102539063	1067.552001953125	-644.9323730468751	-371.5725402832032	1013.4716796875	-568.1608276367189	-274.4824523925782	1024.05908203125	-969.500427246094	-260.6006164550782	1013.996459960938	-715.4335327148439	-456.5969238281251	1109.499633789063	-831.7132568359377	-463.2085266113282	1079.139404296875	-861.200378417969	-459.242401123047	1075.600952148438	-804.8877563476565	-373.7524108886719	817.8786621093752	-1092.407104492188	-338.1723327636719	743.2635498046876	-1114.972900390625	-290.9962158203126	749.1238403320314	-1112.445556640625	-363.3592834472657	687.1726074218751	-1110.051635742188	-351.8278808593751	535.0113525390626	-1130.515380859375	-296.2250366210938	497.4544677734376	-1012.252014160156	-314.2734069824219	365.1355895996094	-1134.493286132813	-380.4283447265626	337.7791748046876	-1188.74169921875	-336.7323303222657	327.7284240722657	-1174.6875	-341.8143310546876	244.0310974121094	-1160.173706054688	-417.6825256347657	120.8210144042969	-1222.18212890625	-367.0106811523438	119.4200592041016	-1138.713989257813	-476.2001953125001	85.47072601318361	-1157.875366210938	-260.0161132812501	56.08821487426759	-1189.744995117188	-262.3232727050782	65.73544311523439	-1238.75390625	-323.2205505371094	53.70708465576173	-1279.883666992188	-366.2196655273438	728.7850341796876	-631.0850830078126	-330.4353027343751	673.1309814453126	-629.4660644531251	-297.3265686035157	673.3761596679689	-632.8777465820314	-360.1958618164063	596.1736450195314	-646.7992553710939	-372.8636779785157	501.9494934082032	-648.3162841796876	-309.3743286132813	498.6147766113282	-769.1715087890627	-330.4184265136719	389.7626037597657	-641.2230834960939	-411.7066040039064	324.8908691406251	-615.7315673828126	-366.1591796875001	313.4348754882813	-618.9456787109376	-352.4322814941407	260.7976379394532	-639.1107177734376	-429.1550903320314	88.92649841308595	-621.0208129882814	-373.6912536621094	101.0496826171875	-698.5509643554689	-474.6644897460939	47.39573669433594	-691.3892211914064	-251.9303741455079	52.79548263549806	-644.1986083984376	-264.2715759277344	55.29858016967775	-598.2624511718751	-321.7348632812501	33.92639541625977	-561.3190917968751	
264	1.315	-77.68465423583986	1621.481689453125	-778.1618652343752	-232.5445404052735	1691.690307617188	-852.0739746093752	-252.1305847167969	1691.849853515625	-712.6487426757814	-375.0452575683594	1540.243896484375	-784.3191528320315	-454.1384582519532	1204.133178710938	-831.2604980468752	-247.8450012207032	1450.875244140625	-799.5925903320315	-301.8795471191407	1543.903930664063	-947.703308105469	-403.5144958496095	1441.303588867188	-1136.80712890625	-370.9346923828126	1401.08642578125	-1144.9033203125	-417.2858276367189	1391.203247070313	-1183.655517578125	-418.428924560547	1329.2802734375	-1210.580200195313	-494.6394042968751	1315.842529296875	-1165.583251953125	-412.4529724121095	1101.586669921875	-1074.838012695313	-371.2140502929688	1068.40576171875	-1130.3017578125	-355.3731384277344	1101.151123046875	-1037.508056640625	-287.8174743652344	1501.426513671875	-629.4327392578126	-392.1518554687501	1351.35302734375	-468.3739318847657	-369.3776855468751	1308.080444335938	-470.7400817871095	-419.2616577148439	1293.09130859375	-439.167449951172	-431.2423706054689	1243.469482421875	-430.1701965332032	-498.6840820312501	1246.64404296875	-484.5836791992189	-415.416961669922	1049.470581054688	-626.2731323242189	-351.6886291503907	1067.64501953125	-645.9983520507814	-371.1087341308594	1013.742431640625	-569.1143188476564	-273.7321777343751	1023.577758789063	-970.6030883789065	-260.2696228027344	1014.017761230469	-716.2791137695314	-456.2190246582032	1109.108032226563	-833.0295410156252	-462.8242492675782	1078.860473632813	-862.210388183594	-458.678436279297	1075.120971679688	-806.1279296875002	-373.8084716796876	817.5212402343752	-1093.163452148438	-337.9590759277344	742.6471557617189	-1115.891479492188	-290.9953002929688	748.4372558593751	-1113.225830078125	-363.5022277832032	686.7470092773439	-1110.7060546875	-352.0117492675782	534.4940185546876	-1130.94970703125	-296.8201293945313	496.7119750976564	-1012.486938476563	-313.8765258789063	365.0098876953126	-1134.817016601563	-380.0739746093751	337.2154846191407	-1189.707397460938	-335.8765258789063	327.2721557617188	-1175.237670898438	-340.3100585937501	243.7591400146485	-1160.970947265625	-415.5134277343751	120.0190200805664	-1223.636840820313	-365.7313842773438	118.6982192993164	-1139.522094726563	-474.9315490722657	85.89996337890626	-1159.43896484375	-258.5682067871094	55.40011978149415	-1190.096557617188	-261.0182189941407	64.4845657348633	-1239.119140625	-321.5704040527344	52.28819274902345	-1280.197021484375	-365.9547424316407	728.8602905273439	-631.8227539062501	-330.1912231445313	673.2230834960939	-629.9395751953126	-297.0896911621094	673.2969970703126	-633.3671264648439	-359.9227600097657	596.1356201171876	-647.2297363281251	-372.6440429687501	501.8950805664064	-648.7348022460939	-309.1719360351563	498.5066223144532	-769.654724121094	-330.2371826171876	389.6776733398439	-641.5181884765626	-411.5313110351564	324.9293518066407	-615.9308471679689	-365.9604492187501	313.4960021972657	-619.1842651367189	-352.3971252441407	260.8008117675782	-639.2432861328126	-429.1148376464845	88.9431610107422	-621.0668334960939	-373.6801147460938	100.9831848144532	-698.5722045898439	-474.6381835937501	47.38182449340821	-691.4164428710939	-251.9522247314454	52.78842926025392	-644.2281494140626	-264.2356567382813	55.29789352416994	-598.2698974609376	-321.7262573242188	33.93064498901368	-561.3351440429689	
265	1.32	-78.03340911865236	1621.579956054688	-779.780456542969	-232.7202453613282	1691.441650390625	-854.1616210937502	-252.2495880126954	1691.833984375	-714.7074584960939	-374.9074401855469	1540.001342773438	-786.2877197265627	-453.7879638671876	1203.695190429688	-832.7207031250002	-247.7243347167969	1450.675170898438	-801.380065917969	-301.6389465332032	1543.517211914063	-949.5410766601565	-402.833709716797	1440.273681640625	-1138.462158203125	-370.3509826660157	1400.353149414063	-1146.653686523438	-416.645721435547	1390.47705078125	-1185.396362304688	-417.8154907226564	1328.393798828125	-1212.2529296875	-493.8516540527345	1314.8330078125	-1167.2685546875	-411.4238586425782	1100.787719726563	-1076.25	-370.0687561035157	1067.633666992188	-1131.507446289063	-354.7837524414063	1100.510498046875	-1038.71435546875	-287.8681030273438	1501.537719726563	-631.1854858398439	-392.5508728027345	1351.736694335938	-469.9969177246095	-369.5247497558594	1308.574951171875	-472.2103271484376	-419.3873291015626	1293.54052734375	-440.842987060547	-431.3142700195314	1243.842407226563	-431.598358154297	-498.7935180664064	1246.876953125	-486.1882324218751	-415.133026123047	1049.560424804688	-627.4047851562501	-351.4555664062501	1067.795043945313	-647.2001953125001	-371.1263122558594	1013.919616699219	-570.2739868164064	-273.2713623046876	1023.13037109375	-971.558288574219	-260.2434387207032	1013.998413085938	-717.0383911132814	-455.8493652343751	1108.78759765625	-834.3870849609377	-462.3427734375001	1078.433227539063	-863.606140136719	-458.2170410156251	1074.834838867188	-807.476257324219	-373.2322387695313	816.990417480469	-1094.041870117188	-337.7754211425782	742.1193847656251	-1116.62255859375	-291.0646972656251	747.7122802734376	-1113.92333984375	-363.9200439453126	686.3996582031251	-1111.375732421875	-352.0301208496094	533.9447021484376	-1131.588989257813	-297.1531372070313	496.2398986816407	-1012.853393554688	-313.4411010742188	364.3861389160157	-1135.21630859375	-378.9857482910157	336.8227844238282	-1190.688720703125	-334.9577331542969	326.7445983886719	-1175.765502929688	-339.5429077148438	243.2772369384766	-1161.613891601563	-414.2207641601564	119.505973815918	-1224.796997070313	-364.8208312988282	118.3052139282227	-1140.501708984375	-473.9574279785157	85.91598510742189	-1160.421630859375	-257.6621398925782	55.1621437072754	-1190.553588867188	-259.7306213378907	63.93943023681642	-1239.903076171875	-320.5385742187501	51.00828933715822	-1280.5126953125	-365.4322814941407	728.8751831054689	-632.5230712890626	-329.8197631835938	673.1132202148439	-630.6281738281251	-296.8131103515626	673.3688964843751	-634.0456542968751	-359.8246765136719	596.0860595703126	-647.6950683593751	-372.3088989257813	501.9233398437501	-649.1522827148439	-308.9340515136719	498.3579406738282	-770.0415649414065	-329.9831542968751	389.611053466797	-641.7525024414064	-411.3752746582032	324.9665222167969	-616.0749511718751	-365.8510131835938	313.5062866210938	-619.3483886718751	-352.3320922851563	260.8258666992188	-639.2957153320314	-429.0996093750001	88.95745849609376	-621.0885009765626	-373.6355590820313	100.9925689697266	-698.6244506835939	-474.6334838867189	47.38700103759766	-691.4462280273439	-251.9245147705079	52.7977981567383	-644.1710205078126	-264.2265625000001	55.27407455444337	-598.2721557617189	-321.7634887695313	33.89635848999024	-561.3156738281251	
